<?xml version="1.0" standalone="no"?>
<!DOCTYPE svg PUBLIC "-//W3C//DTD SVG 20010904//EN"
 "http://www.w3.org/TR/2001/REC-SVG-20010904/DTD/svg10.dtd">
<svg version="1.0" xmlns="http://www.w3.org/2000/svg"
 width="512.000000pt" height="512.000000pt" viewBox="0 0 512.000000 512.000000"
 preserveAspectRatio="xMidYMid meet">
<metadata>
Created by potrace 1.11, written by Peter Selinger 2001-2013
</metadata>
<g transform="translate(0.000000,512.000000) scale(0.100000,-0.100000)"
fill="#000000" stroke="none">
<path d="M413 3019 c-190 -14 -349 -147 -398 -334 -23 -89 -23 -2091 0 -2180
47 -180 197 -310 385 -335 46 -6 878 -9 2185 -10 2302 0 2187 -2 2298 57 80
43 152 120 195 210 l37 78 0 1090 0 1090 -37 78 c-43 90 -115 167 -195 210
-115 61 4 59 -2293 55 -1152 -2 -2132 -6 -2177 -9z m1908 -662 c89 -59 89
-185 0 -244 -32 -22 -44 -23 -201 -23 -157 0 -169 1 -201 23 -89 59 -89 185 0
244 32 22 44 23 201 23 157 0 169 -1 201 -23z m864 9 c38 -16 72 -63 81 -113
9 -47 -31 -123 -76 -145 -47 -24 -321 -26 -375 -4 -38 16 -72 63 -81 113 -9
47 31 123 76 145 47 24 321 26 375 4z m1200 0 c38 -16 72 -63 81 -113 9 -47
-31 -123 -76 -145 -47 -24 -321 -26 -375 -4 -38 16 -72 63 -81 113 -9 47 31
123 76 145 47 24 321 26 375 4z m-3184 -649 c89 -59 89 -185 0 -244 -33 -22
-42 -23 -241 -23 -199 0 -208 1 -241 23 -39 26 -69 79 -69 122 0 43 30 96 69
122 33 22 42 23 241 23 199 0 208 -1 241 -23z m720 0 c39 -26 69 -79 69 -122
0 -43 -30 -96 -69 -122 -29 -20 -47 -23 -121 -23 -74 0 -92 3 -121 23 -89 59
-89 185 0 244 29 20 47 23 121 23 74 0 92 -3 121 -23z m800 0 c94 -63 88 -193
-12 -252 -30 -17 -49 -20 -153 -18 -92 2 -125 7 -149 20 -96 57 -101 189 -8
250 31 21 46 23 161 23 115 0 130 -2 161 -23z m704 9 c38 -16 72 -63 81 -113
9 -47 -31 -123 -76 -145 -44 -22 -166 -24 -215 -4 -38 16 -72 63 -81 113 -9
47 31 123 76 145 44 22 166 24 215 4z m965 -4 c24 -11 43 -32 59 -65 26 -53
24 -91 -9 -145 -34 -55 -66 -62 -280 -62 -214 0 -246 7 -280 62 -33 54 -35 92
-9 145 39 77 58 83 289 83 166 0 200 -3 230 -18z m-3349 -645 c89 -59 89 -185
0 -244 -31 -21 -46 -23 -161 -23 -115 0 -130 2 -161 23 -39 26 -69 79 -69 122
0 43 30 96 69 122 31 21 46 23 161 23 115 0 130 -2 161 -23z m800 0 c89 -59
89 -185 0 -244 -31 -21 -46 -23 -161 -23 -115 0 -130 2 -161 23 -89 59 -89
185 0 244 31 21 46 23 161 23 115 0 130 -2 161 -23z m2544 9 c38 -16 72 -63
81 -113 9 -47 -31 -123 -76 -145 -44 -22 -166 -24 -215 -4 -38 16 -72 63 -81
113 -9 47 31 123 76 145 44 22 166 24 215 4z"/>
</g>
</svg>
